<svg width="311" height="311" viewBox="0 0 311 311" fill="none" xmlns="http://www.w3.org/2000/svg">
<path d="M286 252.588C286 264.882 282.743 275.437 276.228 284.251C269.714 292.834 261.338 299.329 251.101 303.737C240.864 307.912 230.51 310 220.04 310C207.244 310 195.727 306.984 185.49 300.953C175.485 294.69 166.877 287.267 159.664 278.684C152.685 270.101 144.309 258.735 134.537 244.585C123.834 229.043 114.877 217.56 107.664 210.137C100.452 202.714 92.4251 199.003 83.5839 199.003C75.4407 199.003 69.1588 202.366 64.7383 209.094C60.5503 215.589 58.4564 225.331 58.4564 238.322C58.4564 255.255 62.179 269.521 69.6242 281.12C77.0694 292.718 86.9575 298.518 99.2886 298.518C109.06 298.518 118.251 294.69 126.859 287.035C135.468 279.38 143.145 268.71 149.893 255.023L155.477 260.243C146.868 277.176 137.096 289.703 126.161 297.822C115.459 305.941 103.477 310 90.2148 310C78.8143 310 68.2282 307.332 58.4564 301.997C48.6846 296.662 40.774 289.239 34.7248 279.728C28.9083 270.217 26 259.663 26 248.064C26 235.77 29.2573 225.331 35.7718 216.749C42.2863 208.166 50.6622 201.787 60.8993 197.611C71.1365 193.204 81.6063 191 92.3087 191C105.57 191 117.32 194.132 127.557 200.395C137.794 206.658 146.403 214.081 153.383 222.664C160.595 231.247 168.855 242.613 178.161 256.763C188.166 272.073 196.774 283.44 203.987 290.863C211.199 298.286 219.342 301.997 228.416 301.997C236.792 301.997 243.074 298.634 247.262 291.906C251.682 284.947 253.893 275.321 253.893 263.026C253.893 245.861 250.17 231.479 242.725 219.88C235.28 208.282 225.392 202.482 213.06 202.482C193.749 202.482 176.3 218.372 160.711 250.152L155.128 244.933C164.201 227.071 173.973 213.617 184.443 204.57C195.145 195.523 207.709 191 222.134 191C233.535 191 244.121 193.668 253.893 199.003C263.664 204.338 271.459 211.761 277.275 221.272C283.092 230.551 286 240.989 286 252.588Z" fill="black"/>
<path d="M155.85 205L137.874 60.814H180.712L167.325 158.876C175.484 155.517 182.624 150.349 188.744 143.372C194.863 136.137 199.58 126.835 202.895 115.465C206.21 103.837 207.868 89.6253 207.868 72.8295C207.868 50.6072 203.66 34.4574 195.246 24.3799C186.831 14.0439 174.847 8.87597 159.293 8.87597C148.073 8.87597 139.021 11.5891 132.137 17.0155C125.252 22.1835 120.152 29.9354 116.838 40.2713C113.523 50.6072 111.865 63.0103 111.865 77.4806C100.901 77.4806 91.849 75.1551 84.7094 70.5039C77.5698 65.5943 74 58.876 74 50.3488C74 44.4057 75.6574 38.7209 78.9722 33.2946C82.542 27.8682 87.7692 23.0879 94.6538 18.9535C101.793 14.5607 110.463 11.2015 120.662 8.87597C130.862 6.29199 142.591 5 155.85 5C174.209 5 190.656 7.84238 205.19 13.5271C219.979 18.9535 231.581 27.093 239.996 37.9457C248.665 48.54 253 61.5891 253 77.093C253 91.3049 249.558 103.966 242.673 115.078C235.788 125.93 225.844 135.491 212.84 143.76C200.09 151.77 184.664 159.005 166.56 165.465L161.588 205H155.85Z" fill="black"/>
</svg>
